<svg width="868" height="991" viewBox="0 0 868 991" fill="none" xmlns="http://www.w3.org/2000/svg">
<path d="M0 -2H868V991H0V-2Z" fill="#E2ECF0"/>
<path d="M530.08 411.416H560.8L579.232 419.608L595.616 433.944L599.712 438.04L597.664 446.232L585.376 452.376H577.184L566.944 442.136L554.656 435.992H536.224L517.792 448.28L511.648 458.52V487.192L521.888 501.528L534.176 507.672H556.704L568.992 501.528L581.28 487.192H542.368L540.32 485.144V464.664H603.808V540.44L591.52 565.016L575.136 579.352L558.752 585.496H540.32L521.888 579.352L505.504 565.016L499.36 554.776L501.408 546.584H523.936L534.176 556.824L538.272 558.872H558.752L568.992 552.728L577.184 540.44L579.232 524.056L562.848 532.248L556.704 534.296H532.128L507.552 522.008L493.216 505.624L485.024 483.096V460.568L493.216 440.088L509.6 421.656L530.08 411.416Z" fill="#304D64"/>
<path d="M409.248 442.136H435.872L450.208 448.28V442.136H470.688V530.2H450.208V526.104L433.824 534.296H415.392L394.912 524.056L382.624 507.672L380.576 499.48V472.856L386.72 460.568L396.96 450.328L409.248 442.136Z" fill="#2F4C62"/>
<path d="M646.816 442.136H673.44L689.824 450.328L704.16 466.712L708.256 476.952V497.432L698.016 517.912L685.728 528.152L671.392 534.296H650.912L634.528 526.104L624.288 515.864L616.096 501.528V476.952L622.24 462.616L632.48 450.328L646.816 442.136Z" fill="#304D63"/>
<path d="M220.832 411.416H247.456L269.984 466.712L278.176 487.192L286.368 468.76L310.944 411.416H335.52L333.472 425.752L302.752 499.48L290.464 530.2H267.936L235.168 450.328L220.832 417.56V411.416Z" fill="#304D64"/>
<path d="M343.712 442.136H364.192L366.24 444.184V530.2H343.712V442.136Z" fill="#304D63"/>
<path d="M652.96 464.664H669.344L679.584 470.808L683.68 476.952V497.432L675.488 507.672L667.296 511.768H655.008L642.72 503.576L638.624 495.384V479L648.864 466.712L652.96 464.664Z" fill="#DDE8EC"/>
<path d="M417.44 464.664H433.824L448.16 476.952V497.432L439.968 507.672L435.872 509.72H415.392L403.104 495.384V479L413.344 466.712L417.44 464.664Z" fill="#DFE9ED"/>
<path d="M347.808 409.368H362.144L368.288 415.512L366.24 429.848L362.144 433.944H347.808L341.664 425.752V415.512L347.808 409.368Z" fill="#325068"/>
</svg>
